<svg id="Layer_1" data-name="Layer 1" xmlns="http://www.w3.org/2000/svg" width="576.01" height="594.84" viewBox="0 0 576.01 594.84"><defs><style>.cls-1{fill:#3090bc;}</style></defs><title>logo--large</title><path class="cls-1" d="M263.27,293.81V1.59a196.72,196.72,0,0,0-74.23,25v168.9l0.05-.07c0,0.84-.05,1.69-0.05,2.54A99,99,0,0,0,263.27,293.81Z"/><path class="cls-1" d="M387,198a99,99,0,0,0-99-99v74.23a24.74,24.74,0,0,1,0,49.49v74.23A99,99,0,0,0,387,198Z"/><path class="cls-1" d="M288,0V74.23A123.72,123.72,0,1,1,164.29,198V43.5A197.43,197.43,0,0,0,90.06,198c0,109.32,88.62,197.95,198,197.95S486,307.27,486,198,397.34,0,288,0Z"/><path class="cls-1" d="M72.4,492.58q0,10.66-6.06,17.35-8.78,9.69-26.76,9.69H0V424.5H36.79q26.76,0,26.76,24.81a24.43,24.43,0,0,1-2.93,12.47A20.24,20.24,0,0,1,53.1,469q11.39,2.37,15.55,9.13A27.33,27.33,0,0,1,72.4,492.58Zm-31.78-40q0-6.48-5.83-8.57a17.86,17.86,0,0,0-5.55-.7H24.74v18.61h4.51q6.38,0,9.16-3.14A9,9,0,0,0,40.63,452.58Zm7,38.33q0-8.29-8.55-9.76a70.15,70.15,0,0,0-9.31-.42H24.74V500.8h5.49q9.45,0,13.2-2.23A8.31,8.31,0,0,0,47.66,490.91Z"/><path class="cls-1" d="M109,519.62H86.06V415H109V519.62Z"/><path class="cls-1" d="M193.45,496q0,18-17.07,24A53.91,53.91,0,0,1,159,522.41q-20.14,0-28.92-9.89-5.58-6.27-5.58-16.52V455h22.93v36.66q0,6.06,2.91,8.92,3.12,3.07,8.66,3.07t8.59-3.07q2.91-2.85,2.91-8.92V455h22.93v41Z"/><path class="cls-1" d="M277.62,491.53h-48q0,14.57,14,14.57A12.16,12.16,0,0,0,254.56,500h22.16q-2.65,8.76-7.8,13.55-9.34,8.68-25,8.68-19.93,0-30-12.12Q206.41,501,206.41,488q0-15.47,9.41-25.16t26.55-9.68q21.12,0,30.18,15.36a39,39,0,0,1,5.08,20.1v2.93Zm-21.39-13q-2.43-10.94-13-10.94a12.26,12.26,0,0,0-13,10.94h26Z"/><path class="cls-1" d="M393.86,472.37a49.86,49.86,0,0,1-12.89,34Q366.27,523,341.18,523t-39.72-16.65a49.88,49.88,0,0,1-12.89-34A51.66,51.66,0,0,1,292,454.22a50.51,50.51,0,0,1,9.34-15.92q14.71-16.65,39.79-16.65T381,438.3A49.94,49.94,0,0,1,393.86,472.37Zm-25.65,0a25.53,25.53,0,0,0-6.43-17.4,27,27,0,0,0-47.58,17.4,26,26,0,0,0,6.43,17.26,25.64,25.64,0,0,0,20.54,9.43A26.76,26.76,0,0,0,368.21,472.37Z"/><path class="cls-1" d="M480.27,519.62H457.34v-7.18a23.45,23.45,0,0,1-6.61,6,26.73,26.73,0,0,1-13.29,3.27A31.49,31.49,0,0,1,416,513.42q-11.2-9.88-11.2-26.17,0-16.57,11.48-26.45a31.12,31.12,0,0,1,20.95-7.87,29.94,29.94,0,0,1,12.95,2.86,25.78,25.78,0,0,1,7.16,5.5V455h22.93v64.67ZM458,487.28a14,14,0,0,0-4.3-10.37,14.21,14.21,0,0,0-10.4-4.27,14,14,0,0,0-11.16,5.13,14.53,14.53,0,0,0,0,19,13.88,13.88,0,0,0,11.16,5.13,14.27,14.27,0,0,0,10.44-4.23A14.09,14.09,0,0,0,458,487.28Z"/><path class="cls-1" d="M576,519.62H544L518.8,493.28v26.34H495.88V415H518.8v63.27L542.7,455h31.36l-32.4,29.83Z"/><path class="cls-1" d="M94.52,593.85H89V555h5.5v38.82Z"/><path class="cls-1" d="M139.06,593.85H133.5l-12.37-19.14q-5.17-8-7.48-12.21c0.08,1,.11,2.5.11,4.51q0.06,2.25.06,6.82v20h-5.28V555h5.61l13.53,20.84q2.91,4.45,3.3,5.17t3.13,5.56q-0.28-8.53-.28-10.17V555h5.23v38.82Z"/><path class="cls-1" d="M179.31,559.87H167.15v34H161.6v-34h-12V555h29.7v4.84Z"/><path class="cls-1" d="M217.9,593.85h-28.1V555h27.33v4.89H195.31v11.55h19.9v4.62h-19.9V589h22.6v4.84Z"/><path class="cls-1" d="M260.08,593.85h-6.65a14.68,14.68,0,0,1-.63-2.83c-0.13-1-.23-2.13-0.3-3.38s-0.15-2.22-.22-2.92a9.51,9.51,0,0,0-2-5.28q-1.54-1.71-5.06-1.71h-10v16.11h-5.5V555h15.07a29,29,0,0,1,7.48.82,9.48,9.48,0,0,1,5.11,3.58,10,10,0,0,1,2,6.16,10.84,10.84,0,0,1-1.62,5.89,9.16,9.16,0,0,1-4.64,3.74,7.07,7.07,0,0,1,1.57.93,11.25,11.25,0,0,1,1.15,1,4.73,4.73,0,0,1,.85,1.37q0.39,0.88.58,1.4a8.88,8.88,0,0,1,.36,1.62q0.16,1.1.22,1.59c0,0.33.08,0.91,0.14,1.73s0.1,1.37.14,1.62A16.21,16.21,0,0,0,260.08,593.85Zm-6.33-27.71a5.8,5.8,0,0,0-2.14-4.73q-1.92-1.6-5.89-1.59h-10.5v13.36h9.24q5.94,0,8-2.91A7.15,7.15,0,0,0,253.75,566.14Z"/><path class="cls-1" d="M302.91,593.85h-5.83l-4-11.66H278.39l-4.07,11.66h-5.66L283,555h5.88Zm-11.38-16.22-5.72-16.77q-0.83,2.47-1.79,5.31t-2.17,6.19q-1.21,3.35-1.87,5.28h11.55Z"/><path class="cls-1" d="M346.18,579a19.58,19.58,0,0,1-5.39,11.41,15.28,15.28,0,0,1-11.33,4.43q-8.25,0-13-6a22.65,22.65,0,0,1-4.76-14.49,23.64,23.64,0,0,1,2.09-10,17.82,17.82,0,0,1,6.29-7.4,17,17,0,0,1,9.76-2.86,16.26,16.26,0,0,1,10.34,3.27,16.06,16.06,0,0,1,5.61,9.26l-5.45.49a11,11,0,0,0-3.85-6,10.64,10.64,0,0,0-6.71-2.17,10.88,10.88,0,0,0-7,2.31,12.82,12.82,0,0,0-4.12,5.69,22.55,22.55,0,0,0,0,14.74,13.1,13.1,0,0,0,4.1,5.72,10.59,10.59,0,0,0,6.93,2.34,10,10,0,0,0,7.56-3A13.48,13.48,0,0,0,340.8,579h5.39Z"/><path class="cls-1" d="M384.13,559.87H372v34h-5.56v-34h-12V555h29.69v4.84Z"/><path class="cls-1" d="M400,593.85h-5.5V555H400v38.82Z"/><path class="cls-1" d="M443.57,555L430.1,593.85h-5.94L410.52,555h5.83l7.09,21.11q2.47,7.48,3.79,12.43,0.38-1.16,1-3.55t1-3.6L437.79,555h5.77Z"/><path class="cls-1" d="M482.17,593.85h-28.1V555h27.33v4.89H459.57v11.55h19.9v4.62h-19.9V589h22.6v4.84Z"/></svg>