<svg id="Layer_1" data-name="Layer 1" xmlns="http://www.w3.org/2000/svg" width="395.9" height="395.9" viewBox="0 0 395.9 395.9"><defs><style>.cls-1{fill:#3090bc;}</style></defs><title>logo</title><path class="cls-1" d="M175.31,293.81V1.59a196.72,196.72,0,0,0-74.23,25v168.9l0.05-.07c0,0.84-.05,1.69-0.05,2.54A99,99,0,0,0,175.31,293.81Z" transform="translate(-2.1)"/><path class="cls-1" d="M299,198a99,99,0,0,0-99-99v74.23a24.74,24.74,0,0,1,0,49.49v74.23A99,99,0,0,0,299,198Z" transform="translate(-2.1)"/><path class="cls-1" d="M200.05,0V74.23A123.72,123.72,0,1,1,76.33,198V43.5A197.43,197.43,0,0,0,2.1,198c0,109.32,88.62,197.95,198,197.95S398,307.27,398,198,309.38,0,200.05,0Z" transform="translate(-2.1)"/></svg>