<svg id="window" xmlns="http://www.w3.org/2000/svg" width="580" height="459" viewBox="0 0 580 459"><defs><style>.cls-1{fill:#404040;}.cls-2{fill:#535354;}.cls-3{fill:#646464;}.cls-4{fill:#f9f9f9;}</style></defs><title>window</title><rect class="cls-1" width="580" height="459"/><rect class="cls-2" width="580" height="42.54"/><circle class="cls-3" cx="66.5" cy="22.5" r="7.5"/><circle class="cls-3" cx="43.5" cy="22.5" r="7.5"/><circle class="cls-3" cx="20.5" cy="22.5" r="7.5"/><g id="right_eye" data-name="right eye"><rect class="cls-4" x="320.82" y="147.6" width="154.56" height="10" transform="translate(224.51 -236.81) rotate(45)"/><rect class="cls-4" x="320.82" y="147.6" width="154.56" height="10" transform="translate(787.51 -20.99) rotate(135)"/></g><g id="left_eye" data-name="left eye"><rect class="cls-4" x="100.82" y="147.6" width="154.56" height="10" transform="translate(160.07 -81.24) rotate(45)"/><rect class="cls-4" x="100.82" y="147.6" width="154.56" height="10" transform="translate(411.95 134.57) rotate(135)"/></g><g id="mouth"><rect class="cls-4" x="77.49" y="345.82" width="100.82" height="10" transform="translate(285.53 12.31) rotate(45)"/><rect class="cls-4" x="141.74" y="345.82" width="100.82" height="10" transform="translate(576.09 463.01) rotate(135)"/><rect class="cls-4" x="270.49" y="345.82" width="100.82" height="10" transform="translate(795.88 371.97) rotate(135)"/><rect class="cls-4" x="206.24" y="345.82" width="100.82" height="10" transform="translate(323.24 -78.73) rotate(45)"/><rect class="cls-4" x="399.11" y="345.82" width="100.82" height="10" transform="translate(1015.45 281.02) rotate(135)"/><rect class="cls-4" x="334.86" y="345.82" width="100.82" height="10" transform="translate(360.91 -169.68) rotate(45)"/></g></svg>